<svg width="56" height="56" viewBox="0 0 56 56" fill="none" xmlns="http://www.w3.org/2000/svg">
<rect x="0.5" y="0.5" width="55" height="55" rx="5.5" stroke="#400043"/>
<path d="M22.5 33V28.9118C22.5 28.1321 23.1321 27.5 23.9118 27.5H32.0882C32.8679 27.5 33.5 28.1321 33.5 28.9118V33M28 27.5V23M19.4235 33H25.5765C25.8104 33 26 33.1896 26 33.4235V37.5765C26 37.8104 25.8104 38 25.5765 38H19.4235C19.1896 38 19 37.8104 19 37.5765V33.4235C19 33.1896 19.1896 33 19.4235 33ZM24.9235 18H31.0765C31.3104 18 31.5 18.1896 31.5 18.4235V22.5765C31.5 22.8104 31.3104 23 31.0765 23H24.9235C24.6896 23 24.5 22.8104 24.5 22.5765V18.4235C24.5 18.1896 24.6896 18 24.9235 18ZM30.4235 33H36.5765C36.8104 33 37 33.1896 37 33.4235V37.5765C37 37.8104 36.8104 38 36.5765 38H30.4235C30.1896 38 30 37.8104 30 37.5765V33.4235C30 33.1896 30.1896 33 30.4235 33Z" stroke="#400043" stroke-width="1.5"/>
</svg>
