<svg width="56" height="56" viewBox="0 0 56 56" fill="none" xmlns="http://www.w3.org/2000/svg">
<rect x="0.5" y="0.5" width="55" height="55" rx="5.5" stroke="#400043"/>
<path d="M28 34.51L28.01 34.4989M18 23C24 18.5 32 18.5 38 23M21 27C25 24 31 24 35 27M24.5 30.5C26.7504 29.1 29.2498 29.0996 31.5001 30.5M37.1667 34.5H37.5765C37.8104 34.5 38 34.6896 38 34.9235V37.5765C38 37.8104 37.8104 38 37.5765 38H33.4235C33.1896 38 33 37.8104 33 37.5765V34.9235C33 34.6896 33.1896 34.5 33.4235 34.5H33.8333M37.1667 34.5V32.75C37.1667 32.1667 36.8333 31 35.5 31C34.1667 31 33.8333 32.1667 33.8333 32.75V34.5M37.1667 34.5H33.8333" stroke="#4A044E" stroke-width="1.5" stroke-linecap="round" stroke-linejoin="round"/>
</svg>
