<svg width="20" height="20" viewBox="0 0 20 20" fill="none" xmlns="http://www.w3.org/2000/svg">
<path d="M3.33334 13V8.57604C3.33334 8.46453 3.45069 8.39201 3.55043 8.44187L8.65837 10.9958C9.50295 11.4181 10.4971 11.4181 11.3417 10.9958L16.4496 8.44187C16.5493 8.39201 16.6667 8.46453 16.6667 8.57604V13C16.6667 14.1046 15.7712 15 14.6667 15H5.33334C4.22877 15 3.33334 14.1046 3.33334 13Z" fill="white"/>
<path d="M3.33334 7.00016V7.40746C3.33334 7.46427 3.36544 7.51621 3.41626 7.54162L8.65837 10.1627C9.50295 10.585 10.4971 10.585 11.3417 10.1627L16.5838 7.54162C16.6346 7.51621 16.6667 7.46427 16.6667 7.40746V7.00016C16.6667 5.89559 15.7712 5.00016 14.6667 5.00016H5.33334C4.22877 5.00016 3.33334 5.89559 3.33334 7.00016Z" fill="white"/>
</svg>
