<svg width="20" height="20" viewBox="0 0 20 20" fill="none" xmlns="http://www.w3.org/2000/svg">
<path d="M5.41872 5.81249C5.65409 3.45886 7.63462 1.6665 9.99999 1.6665C12.3654 1.6665 14.3459 3.45886 14.5813 5.81249L14.8201 8.20094C14.9382 9.38215 15.3443 10.5163 16.0028 11.5041L16.7204 12.5805C17.2192 13.3286 17.4685 13.7027 17.4647 14.0121C17.4607 14.3378 17.2984 14.641 17.0297 14.825C16.7743 14.9998 16.3248 14.9998 15.4256 14.9998H4.57435C3.67523 14.9998 3.22567 14.9998 2.97028 14.825C2.70157 14.641 2.53926 14.3378 2.53525 14.0121C2.53144 13.7027 2.78081 13.3286 3.27955 12.5805L3.99717 11.5041C4.65565 10.5163 5.06176 9.38215 5.17988 8.20094L5.41872 5.81249Z" fill="white"/>
<path d="M8.39011 17.1912C8.48507 17.2798 8.69431 17.3581 8.98539 17.4139C9.27646 17.4697 9.6331 17.5 9.99999 17.5C10.3669 17.5 10.7235 17.4697 11.0146 17.4139C11.3057 17.3581 11.5149 17.2798 11.6099 17.1912" stroke="white" stroke-width="2" stroke-linecap="round"/>
</svg>
