<svg width="62" height="63" viewBox="0 0 62 63" fill="none" xmlns="http://www.w3.org/2000/svg">
<rect x="0.5" y="1" width="61" height="61" rx="30.5" fill="#F5D0FE"/>
<rect x="0.5" y="1" width="61" height="61" rx="30.5" stroke="#4A044E"/>
<g clip-path="url(#clip0_231_8673)">
<path d="M40.75 36.2883V40.119C40.7501 40.3933 40.6462 40.6574 40.4592 40.858C40.2722 41.0587 40.0161 41.181 39.7425 41.2002C39.2691 41.2327 38.8823 41.25 38.5833 41.25C29.0099 41.25 21.25 33.4901 21.25 23.9167C21.25 23.6177 21.2663 23.2309 21.2998 22.7575C21.319 22.4839 21.4413 22.2278 21.642 22.0408C21.8426 21.8538 22.1067 21.7499 22.381 21.75H26.2117C26.346 21.7499 26.4757 21.7997 26.5754 21.8898C26.6751 21.9799 26.7377 22.1038 26.7512 22.2375C26.7761 22.4867 26.7988 22.6849 26.8205 22.8355C27.0358 24.338 27.477 25.7993 28.1292 27.1699C28.2321 27.3866 28.1649 27.6455 27.9699 27.7842L25.6321 29.4547C27.0615 32.7853 29.7158 35.4396 33.0464 36.869L34.7148 34.5355C34.7829 34.4402 34.8824 34.3718 34.9959 34.3423C35.1093 34.3128 35.2295 34.324 35.3355 34.3741C36.7059 35.025 38.1669 35.4651 39.6688 35.6795C39.8194 35.7012 40.0177 35.725 40.2647 35.7488C40.3982 35.7625 40.5218 35.8253 40.6117 35.925C40.7016 36.0246 40.7502 36.1541 40.75 36.2883Z" fill="#4A044E"/>
</g>
<defs>
<clipPath id="clip0_231_8673">
<rect width="26" height="26" fill="white" transform="translate(18 18.5)"/>
</clipPath>
</defs>
</svg>
