<svg width="62" height="63" viewBox="0 0 62 63" fill="none" xmlns="http://www.w3.org/2000/svg">
<rect x="0.5" y="1" width="61" height="61" rx="30.5" fill="#F5D0FE"/>
<rect x="0.5" y="1" width="61" height="61" rx="30.5" stroke="#4A044E"/>
<g clip-path="url(#clip0_231_8697)">
<path d="M21.25 21.75H40.75C41.0373 21.75 41.3129 21.8641 41.5161 22.0673C41.7192 22.2705 41.8334 22.546 41.8334 22.8333V40.1667C41.8334 40.454 41.7192 40.7295 41.5161 40.9327C41.3129 41.1359 41.0373 41.25 40.75 41.25H21.25C20.9627 41.25 20.6872 41.1359 20.484 40.9327C20.2808 40.7295 20.1667 40.454 20.1667 40.1667V22.8333C20.1667 22.546 20.2808 22.2705 20.484 22.0673C20.6872 21.8641 20.9627 21.75 21.25 21.75ZM31.065 31.1566L24.1187 25.2578L22.7158 26.9088L31.0791 34.0101L39.2919 26.9034L37.8749 25.2643L31.065 31.1566Z" fill="#4A044E"/>
</g>
<defs>
<clipPath id="clip0_231_8697">
<rect width="26" height="26" fill="white" transform="translate(18 18.5)"/>
</clipPath>
</defs>
</svg>
