<svg width="62" height="63" viewBox="0 0 62 63" fill="none" xmlns="http://www.w3.org/2000/svg">
<rect x="0.5" y="1" width="61" height="61" rx="30.5" fill="#F5D0FE"/>
<rect x="0.5" y="1" width="61" height="61" rx="30.5" stroke="#4A044E"/>
<g clip-path="url(#clip0_231_8685)">
<path d="M37.8943 37.311L31 44.2053L24.1057 37.311C22.7421 35.9474 21.8135 34.2101 21.4373 32.3188C21.0611 30.4275 21.2542 28.4671 21.9922 26.6856C22.7301 24.904 23.9798 23.3812 25.5832 22.3099C27.1866 21.2386 29.0716 20.6667 31 20.6667C32.9284 20.6667 34.8134 21.2386 36.4168 22.3099C38.0202 23.3812 39.2699 24.904 40.0078 26.6856C40.7458 28.4671 40.9389 30.4275 40.5627 32.3188C40.1865 34.2101 39.2579 35.9474 37.8943 37.311ZM31 32.5833C31.5746 32.5833 32.1257 32.3551 32.5321 31.9487C32.9384 31.5424 33.1667 30.9913 33.1667 30.4167C33.1667 29.842 32.9384 29.2909 32.5321 28.8846C32.1257 28.4783 31.5746 28.25 31 28.25C30.4254 28.25 29.8743 28.4783 29.4679 28.8846C29.0616 29.2909 28.8333 29.842 28.8333 30.4167C28.8333 30.9913 29.0616 31.5424 29.4679 31.9487C29.8743 32.3551 30.4254 32.5833 31 32.5833Z" fill="#4A044E"/>
</g>
<defs>
<clipPath id="clip0_231_8685">
<rect width="26" height="26" fill="white" transform="translate(18 18.5)"/>
</clipPath>
</defs>
</svg>
