<svg width="31" height="51" viewBox="0 0 31 51" fill="none" xmlns="http://www.w3.org/2000/svg">
<path d="M15.2921 0.623535C6.95532 0.623535 0.213867 7.36502 0.213867 15.7018C0.213867 24.0385 15.2921 39.6314 15.2921 39.7343C15.2921 39.6314 30.3703 24.0385 30.3703 15.7018C30.4218 7.36502 23.6288 0.623535 15.2921 0.623535ZM15.395 21.8772C11.8442 21.8772 8.96232 18.9953 8.96232 15.4445C8.96232 11.8936 11.8442 9.01179 15.395 9.01179C18.9459 9.01179 21.8277 11.8936 21.8277 15.4445C21.8277 18.9953 18.9973 21.8772 15.395 21.8772Z" fill="#0E0E0E"/>
<path d="M16.1673 43.13C18.0714 43.13 19.6152 44.6739 19.6152 46.5779C19.6152 48.482 18.0714 50.0258 16.1673 50.0258C14.2632 50.0258 12.7194 48.482 12.7194 46.5779C12.7194 44.6739 14.2632 43.13 16.1673 43.13Z" fill="#0E0E0E"/>
</svg>
