<svg width="92" height="77" viewBox="0 0 92 77" fill="none" xmlns="http://www.w3.org/2000/svg">
<rect width="92" height="77" rx="10" fill="#400043"/>
<path d="M43.9 50.7L36.8 43.6L39.7 40.7L43.9 44.9L52.3 36.5L55.2 39.4L43.9 50.7ZM32 58C30.9 58 29.9583 57.6083 29.175 56.825C28.3917 56.0417 28 55.1 28 54V26C28 24.9 28.3917 23.9583 29.175 23.175C29.9583 22.3917 30.9 22 32 22H34V18H38V22H54V18H58V22H60C61.1 22 62.0417 22.3917 62.825 23.175C63.6083 23.9583 64 24.9 64 26V54C64 55.1 63.6083 56.0417 62.825 56.825C62.0417 57.6083 61.1 58 60 58H32ZM32 54H60V34H32V54ZM32 30H60V26H32V30Z" fill="#F5D0FE"/>
</svg>
