<svg width="14" height="14" viewBox="0 0 14 14" fill="none" xmlns="http://www.w3.org/2000/svg">
<path d="M2.5 12.25V13C2.5 13.2125 2.42813 13.3906 2.28438 13.5344C2.14063 13.6781 1.9625 13.75 1.75 13.75H1C0.7875 13.75 0.609375 13.6781 0.465625 13.5344C0.321875 13.3906 0.25 13.2125 0.25 13V7L1.825 2.5C1.9 2.275 2.03438 2.09375 2.22813 1.95625C2.42188 1.81875 2.6375 1.75 2.875 1.75H4.75V0.25H9.25V1.75H11.125C11.3625 1.75 11.5781 1.81875 11.7719 1.95625C11.9656 2.09375 12.1 2.275 12.175 2.5L13.75 7V13C13.75 13.2125 13.6781 13.3906 13.5344 13.5344C13.3906 13.6781 13.2125 13.75 13 13.75H12.25C12.0375 13.75 11.8594 13.6781 11.7156 13.5344C11.5719 13.3906 11.5 13.2125 11.5 13V12.25H2.5ZM2.35 5.5H11.65L10.8625 3.25H3.1375L2.35 5.5ZM3.625 10C3.9375 10 4.20312 9.89062 4.42188 9.67188C4.64062 9.45312 4.75 9.1875 4.75 8.875C4.75 8.5625 4.64062 8.29688 4.42188 8.07812C4.20312 7.85938 3.9375 7.75 3.625 7.75C3.3125 7.75 3.04688 7.85938 2.82812 8.07812C2.60938 8.29688 2.5 8.5625 2.5 8.875C2.5 9.1875 2.60938 9.45312 2.82812 9.67188C3.04688 9.89062 3.3125 10 3.625 10ZM10.375 10C10.6875 10 10.9531 9.89062 11.1719 9.67188C11.3906 9.45312 11.5 9.1875 11.5 8.875C11.5 8.5625 11.3906 8.29688 11.1719 8.07812C10.9531 7.85938 10.6875 7.75 10.375 7.75C10.0625 7.75 9.79688 7.85938 9.57812 8.07812C9.35938 8.29688 9.25 8.5625 9.25 8.875C9.25 9.1875 9.35938 9.45312 9.57812 9.67188C9.79688 9.89062 10.0625 10 10.375 10ZM1.75 10.75H12.25V7H1.75V10.75Z" fill="#65558F"/>
</svg>
