<svg width="92" height="77" viewBox="0 0 92 77" fill="none" xmlns="http://www.w3.org/2000/svg">
<rect width="92" height="77" rx="10" fill="#400043"/>
<path d="M34 55.9999C32.5 55.9999 31.0167 55.6333 29.55 54.8999C28.0833 54.1666 26.9 53.1999 26 51.9999C26.8667 51.9999 27.75 51.6583 28.65 50.9749C29.55 50.2916 30 49.2999 30 47.9999C30 46.3333 30.5833 44.9166 31.75 43.7499C32.9167 42.5833 34.3333 41.9999 36 41.9999C37.6667 41.9999 39.0833 42.5833 40.25 43.7499C41.4167 44.9166 42 46.3333 42 47.9999C42 50.1999 41.2167 52.0833 39.65 53.6499C38.0833 55.2166 36.2 55.9999 34 55.9999ZM34 51.9999C35.1 51.9999 36.0417 51.6083 36.825 50.8249C37.6083 50.0416 38 49.0999 38 47.9999C38 47.4333 37.8083 46.9583 37.425 46.5749C37.0417 46.1916 36.5667 45.9999 36 45.9999C35.4333 45.9999 34.9583 46.1916 34.575 46.5749C34.1917 46.9583 34 47.4333 34 47.9999C34 48.7666 33.9083 49.4666 33.725 50.0999C33.5417 50.7333 33.3 51.3333 33 51.8999C33.1667 51.9666 33.3333 51.9999 33.5 51.9999H34ZM45.5 43.9999L40 38.4999L57.9 20.5999C58.2667 20.2333 58.725 20.0416 59.275 20.0249C59.825 20.0083 60.3 20.1999 60.7 20.5999L63.4 23.2999C63.8 23.6999 64 24.1666 64 24.6999C64 25.2333 63.8 25.6999 63.4 26.0999L45.5 43.9999Z" fill="#F5D0FE"/>
</svg>
