<svg width="92" height="77" viewBox="0 0 92 77" fill="none" xmlns="http://www.w3.org/2000/svg">
<rect width="92" height="77" rx="10" fill="#400043"/>
<path d="M39.2 59L35.4 52.6L28.2 51L28.9 43.6L24 38L28.9 32.4L28.2 25L35.4 23.4L39.2 17L46 19.9L52.8 17L56.6 23.4L63.8 25L63.1 32.4L68 38L63.1 43.6L63.8 51L56.6 52.6L52.8 59L46 56.1L39.2 59ZM40.9 53.9L46 51.7L51.2 53.9L54 49.1L59.5 47.8L59 42.2L62.7 38L59 33.7L59.5 28.1L54 26.9L51.1 22.1L46 24.3L40.8 22.1L38 26.9L32.5 28.1L33 33.7L29.3 38L33 42.2L32.5 47.9L38 49.1L40.9 53.9ZM43.9 45.1L55.2 33.8L52.4 30.9L43.9 39.4L39.6 35.2L36.8 38L43.9 45.1Z" fill="#F5D0FE"/>
</svg>
